<svg xmlns="http://www.w3.org/2000/svg" viewBox="0 0 256 256" role="img" aria-labelledby="title desc">
  <title id="title">Doraemon-style avatar</title>
  <desc id="desc">A simple blue cartoon robot cat face avatar.</desc>
  <rect width="256" height="256" rx="48" fill="#f5fbff"/>
  <circle cx="128" cy="130" r="104" fill="#1e9be0"/>
  <circle cx="128" cy="143" r="82" fill="#fff"/>
  <ellipse cx="104" cy="70" rx="23" ry="31" fill="#fff"/>
  <ellipse cx="152" cy="70" rx="23" ry="31" fill="#fff"/>
  <circle cx="112" cy="78" r="7" fill="#1b2530"/>
  <circle cx="144" cy="78" r="7" fill="#1b2530"/>
  <circle cx="128" cy="106" r="14" fill="#e53935"/>
  <circle cx="123" cy="101" r="5" fill="#fff"/>
  <path d="M128 120v42" stroke="#1b2530" stroke-width="5" stroke-linecap="round"/>
  <path d="M82 149c14 25 32 38 46 38s32-13 46-38" fill="none" stroke="#1b2530" stroke-width="5" stroke-linecap="round"/>
  <path d="M48 120h56M48 141h56M52 162h54M152 120h56M152 141h56M150 162h54" stroke="#1b2530" stroke-width="4" stroke-linecap="round"/>
  <path d="M49 202c20 23 48 36 79 36s59-13 79-36" fill="none" stroke="#e53935" stroke-width="12" stroke-linecap="round"/>
  <circle cx="128" cy="213" r="12" fill="#f7c843" stroke="#a77700" stroke-width="4"/>
</svg>
